<?xml version="1.0" encoding="UTF-8"?>
<svg version="1.1" width="1024px" height="1024px" viewBox="0 0 1024 1024" xmlns="http://www.w3.org/2000/svg" xmlns:xlink="http://www.w3.org/1999/xlink">
    <defs>
        <linearGradient id="chain-color"><stop stop-color="#6B6B6B" /></linearGradient>
        <linearGradient id="chain-light-color"><stop stop-color="#FFFFFF20" /></linearGradient>
        <linearGradient id="chain-shadow-color"><stop stop-color="#00000080" /></linearGradient>
    </defs>
    <g transform="translate(512 512) scale(70) rotate(45)">
        <g id="chain-a">
            <clipPath id="chain-a-clip">
                <path d="M -1,-8.5 h 2 a 2 2 0 0 1 2,2 v 4 a 2 2 0 0 1 -2,2 h -2 a 2 2 0 0 1 -2,-2 v -4 a 2 2 0 0 1 2,-2 Z m 0,3 v 2 a 1 1 0 0 0 2,0 v -2 a 1 1 0 0 0 -2,0 Z" />
            </clipPath>
            <rect x="-3" y="-8.5" width="6" height="8" fill="url(#chain-color)" clip-path="url(#chain-a-clip)" />
            <path d="m -1.5,-5.5 v 2 a 1 1 0 0 0 1,1 h 0.5 v -4 h -0.5 a 1 1 0 0 0 -1,1 Z"
                fill="url(#chain-shadow-color)" clip-path="url(#chain-a-clip)" />
            <path d="M 0.5,-8.5 a 2 2 0 0 1 2,2 v 4 a 2 2 0 0 1 -2,2 h 2.5 v -8 Z"
                fill="url(#chain-shadow-color)" clip-path="url(#chain-a-clip)" />
            <path d="M -3.5,-8.5 h 3 a 2 2 0 0 0 -2,2 v 4 a 2 2 0 0 0 2,2 h -3 Z"
                fill="url(#chain-light-color)" clip-path="url(#chain-a-clip)" />
            <path d="M 0,-6.5 h 0.5 a 1 1 0 0 1 1,1 v 2 a 1 1 0 0 1 -1,1 h -0.5 Z"
                fill="url(#chain-light-color)" clip-path="url(#chain-a-clip)" />
        </g>
        <use id="chain-c" xlink:href="#chain-a" transform="translate(0, 9)" />
        <g id="chain-b">
            <clipPath id="chain-b-clip">
                <path d="M -1,-3 a 1 1 0 0 1 2,0 v 6 a 1 1 0 0 1 -2,0 Z" />
            </clipPath>
            <rect x="-1" y="-4" width="2" height="8" fill="url(#chain-color)" clip-path="url(#chain-b-clip)" />
            <path d="M -0.5,-4.2 a 1 1 0 0 1 1,1 v 6.4 a 1 1 0 0 1 -1,1 h 1.5 v -8 Z"
                fill="url(#chain-shadow-color)" clip-path="url(#chain-b-clip)" />
            <path d="M -1.5,-4.2 h 2 a 1 1 0 0 0 -1,1 v 6.4 a 1 1 0 0 0 1,1 h -2 Z"
                fill="url(#chain-light-color)" clip-path="url(#chain-b-clip)" />
        </g>
    </g>
</svg>
