<?xml version="1.0" encoding="UTF-8"?>
<svg version="1.1" width="1024px" height="1024px" viewBox="0 0 1024 1024" xmlns="http://www.w3.org/2000/svg" xmlns:xlink="http://www.w3.org/1999/xlink">
    <defs>
        <linearGradient id="paper-color" gradientTransform="rotate(45)">
            <stop offset="0" stop-color="#5C5C5C" />
            <stop offset="1" stop-color="#7A7A7A" />
        </linearGradient>
        <linearGradient id="chain-color"><stop stop-color="#CCCCCC" /></linearGradient>
        <linearGradient id="chain-light-color"><stop stop-color="#FFFFFF60" /></linearGradient>
        <linearGradient id="chain-shadow-color"><stop stop-color="#00000030" /></linearGradient>
        <linearGradient id="chain-shadow-gradient">
            <stop offset="0" stop-color="#00000030" />
            <stop offset="1" stop-color="#00000000" />
        </linearGradient>
        <linearGradient id="chain-b-shadow-gradient">
            <stop offset="0" stop-color="#00000000" />
            <stop offset="0.4" stop-color="#00000030" />
            <stop offset="0.6" stop-color="#00000030" />
            <stop offset="1" stop-color="#00000000" />
        </linearGradient>
        <linearGradient id="corner-shadow-gradient" gradientTransform="rotate(45)">
            <stop offset="0" stop-color="#00000040" />
            <stop offset="1" stop-color="#D0D0D000" />
        </linearGradient>
    </defs>
    <path d="M 0,0 l 1024,0 0,1024 -768,0 0,-256 -256,0 Z" fill="url(#paper-color)" />
    <g transform="translate(512 512) scale(48) rotate(30)">
        <rect x="1" y="-8.5" width="5" height="17" fill="url(#chain-shadow-gradient)" />
        <g id="chain-a">
            <clipPath id="chain-a-clip">
                <path d="M -1,-8.5 h 2 a 2 2 0 0 1 2,2 v 4 a 2 2 0 0 1 -2,2 h -2 a 2 2 0 0 1 -2,-2 v -4 a 2 2 0 0 1 2,-2 Z m 0,3 v 2 a 1 1 0 0 0 2,0 v -2 a 1 1 0 0 0 -2,0 Z" />
            </clipPath>
            <rect x="-3" y="-8.5" width="6" height="8" fill="url(#chain-color)" clip-path="url(#chain-a-clip)" />
            <path d="m -1.5,-5.5 v 2 a 1 1 0 0 0 1,1 h 0.5 v -4 h -0.5 a 1 1 0 0 0 -1,1 Z" fill="url(#chain-shadow-color)" clip-path="url(#chain-a-clip)" />
            <path d="M 0.5,-8.5 a 2 2 0 0 1 2,2 v 4 a 2 2 0 0 1 -2,2 h 2.5 v -8 Z" fill="url(#chain-shadow-color)" clip-path="url(#chain-a-clip)" />
            <path d="M -3.5,-8.5 h 3 a 2 2 0 0 0 -2,2 v 4 a 2 2 0 0 0 2,2 h -3 Z" fill="url(#chain-light-color)" clip-path="url(#chain-a-clip)" />
            <path d="M 0,-6.5 h 0.5 a 1 1 0 0 1 1,1 v 2 a 1 1 0 0 1 -1,1 h -0.5 Z" fill="url(#chain-light-color)" clip-path="url(#chain-a-clip)" />
        </g>
        <use id="chain-c" xlink:href="#chain-a" transform="translate(0, 9)" />
        <rect x="-1.5" y="-3" width="3" height="6" fill="url(#chain-b-shadow-gradient)" />
        <g id="chain-b">
            <clipPath id="chain-b-clip">
                <path d="M -1,-3 a 1 1 0 0 1 2,0 v 6 a 1 1 0 0 1 -2,0 Z" />
            </clipPath>
            <rect x="-1" y="-4" width="2" height="8" fill="url(#chain-color)" clip-path="url(#chain-b-clip)" />
            <path d="M -0.5,-4.2 a 1 1 0 0 1 1,1 v 6.4 a 1 1 0 0 1 -1,1 h 1.5 v -8 Z" fill="url(#chain-shadow-color)" clip-path="url(#chain-b-clip)" />
            <path d="M -1.5,-4.2 h 2 a 1 1 0 0 0 -1,1 v 6.4 a 1 1 0 0 0 1,1 h -2 Z" fill="url(#chain-light-color)" clip-path="url(#chain-b-clip)" />
        </g>
    </g>
    <path id="corner" d="M 0,768 l 256,0 0,256 Z" fill="url(#paper-color)" />
    <path id="corner-shadow" d="M 256,768 l 256,256 h -256 Z" fill="url(#corner-shadow-gradient)" stroke="none" />
</svg>
